<svg width="102" height="102" viewBox="0 0 102 102" fill="none" xmlns="http://www.w3.org/2000/svg">
<path d="M60.9156 51.7899C59.0375 51.1719 56.3338 51.3047 52.8044 51.3047H38.625V69.8125H53.7885C56.1575 69.8125 57.8216 69.559 58.78 69.382C60.469 69.0794 61.8813 68.4936 63.0159 67.7871C64.1497 67.0822 65.0823 66.0128 65.8146 64.6641C66.5452 63.3155 66.9114 61.7375 66.9114 59.9728C66.9114 57.9063 66.3819 56.3195 65.3221 54.7938C64.2631 53.2681 62.7946 52.4079 60.9156 51.7899ZM58.9691 43.3278C60.8336 42.7742 62.2394 41.807 63.1849 40.5219C64.1312 39.236 64.6035 37.6001 64.6035 35.6583C64.6035 33.8188 64.1618 32.1869 63.279 30.7868C62.3963 29.3866 61.1369 28.8451 59.4978 28.3276C57.8586 27.8118 55.0479 27.9688 51.0647 27.9688H38.625V44.0625H51.9724C55.2249 44.0625 57.5561 43.7567 58.9691 43.3278ZM101.391 13.9873C101.391 6.59866 95.4013 0.609375 88.0127 0.609375H14.1826C6.79398 0.609375 0.804688 6.59866 0.804688 13.9873V87.8174C0.804688 95.206 6.79398 101.195 14.1826 101.195H88.0127C95.4013 101.195 101.391 95.206 101.391 87.8174V13.9873ZM72.8669 67.1932C71.7709 69.4246 70.415 71.1451 68.8016 72.3553C67.1874 73.5656 65.1636 74.5923 62.731 75.2103C60.2993 75.8291 57.3171 76.25 53.7885 76.25H31.3828V20.7266H53.4473C57.6832 20.7266 61.0798 21.2166 63.6387 22.3375C66.1984 23.4601 68.2021 25.1515 69.6529 27.4835C71.1022 29.8155 71.8272 32.2368 71.8272 34.7828C71.8272 37.1526 71.1835 39.376 69.8984 41.4682C68.6125 43.562 66.6708 45.2454 64.0749 46.5313C67.4272 47.5146 70.0054 49.19 71.8079 51.559C73.6104 53.9288 74.5117 56.7267 74.5117 59.9535C74.5117 62.5502 73.9637 64.9627 72.8669 67.1932Z" fill="#7D76F9"/>
</svg>
