<svg width="40" height="40" viewBox="0 0 32 32" fill="none" xmlns="http://www.w3.org/2000/svg">
<path d="M14.5062 0.0625011C11.4 0.362501 8.31873 1.63125 5.90623 3.59375C5.19373 4.16875 4.06873 5.30625 3.50623 6.0125C2.07498 7.80625 0.899976 10.2313 0.412476 12.4063C0.106226 13.7688 0.0374756 14.4375 0.0374756 16C0.0374756 17.5625 0.106226 18.2313 0.412476 19.5938C0.906226 21.8125 2.11248 24.275 3.59373 26.0938C4.16873 26.8063 5.30623 27.9313 6.01248 28.4938C7.80623 29.925 10.2312 31.1 12.4062 31.5875C13.7687 31.8938 14.4375 31.9625 16 31.9625C17.5625 31.9625 18.2312 31.8938 19.5937 31.5875C21.225 31.225 23.3625 30.3125 24.7687 29.3813C27.2 27.7625 29.0687 25.6375 30.35 23.0313C31.1312 21.4375 31.575 20.0063 31.8562 18.1875C32.0062 17.1813 32.0062 14.8188 31.8562 13.8125C31.575 11.9938 31.1312 10.5625 30.35 8.96875C29.5125 7.26875 28.5812 5.96875 27.2375 4.64375C25.9187 3.3375 24.7125 2.48125 23.0312 1.65625C21.4562 0.881251 19.9937 0.425001 18.25 0.156251C17.4625 0.0375011 15.325 -0.012499 14.5062 0.0625011ZM16.5437 9.25C16.775 9.3375 22.6125 15.1625 22.725 15.4188C23.0875 16.2438 22.2437 17.0875 21.4187 16.725C21.3062 16.675 20.2812 15.7 19.125 14.5375L17.0312 12.4375L17 17.9C16.9687 23.3 16.9687 23.3688 16.8375 23.5375C16.5937 23.8688 16.3937 23.9688 16 23.9688C15.6062 23.9688 15.4062 23.8688 15.1625 23.5375C15.0312 23.3688 15.0312 23.3 15 17.9L14.9687 12.4375L12.875 14.5375C11.7187 15.7 10.6937 16.675 10.5812 16.725C9.77498 17.075 8.94373 16.2813 9.24998 15.4563C9.33748 15.2375 15.15 9.39375 15.4062 9.275C15.6312 9.175 16.2937 9.1625 16.5437 9.25Z" fill="url(#paint0_linear_167_8)"/>
<defs>
<linearGradient id="paint0_linear_167_8" x1="-1.99998" y1="12" x2="-1.99998" y2="37.5" gradientUnits="userSpaceOnUse">
<stop stop-color="#00FFD6"/>
<stop offset="1" stop-color="#1CB39A"/>
</linearGradient>
</defs>
</svg>
