<svg width="111" height="111" viewBox="0 0 111 111" fill="none" xmlns="http://www.w3.org/2000/svg">
<path d="M72.8438 38.1562C77.4436 38.1562 81.8551 36.329 85.1076 33.0764C88.3602 29.8238 90.1875 25.4123 90.1875 20.8125C90.1875 16.2127 88.3602 11.8012 85.1076 8.54862C81.8551 5.29603 77.4436 3.46875 72.8438 3.46875H38.1563C33.5564 3.46875 29.145 5.29603 25.8924 8.54862C22.6398 11.8012 20.8125 16.2127 20.8125 20.8125C20.8125 25.4123 22.6398 29.8238 25.8924 33.0764C29.145 36.329 33.5564 38.1562 38.1563 38.1562C33.5564 38.1562 29.145 39.9835 25.8924 43.2361C22.6398 46.4887 20.8125 50.9002 20.8125 55.5C20.8125 60.0998 22.6398 64.5113 25.8924 67.7639C29.145 71.0165 33.5564 72.8438 38.1563 72.8438C34.726 72.8438 31.3728 73.8609 28.5206 75.7667C25.6684 77.6725 23.4454 80.3812 22.1327 83.5503C20.82 86.7195 20.4766 90.2067 21.1458 93.5711C21.815 96.9355 23.4668 100.026 25.8924 102.451C28.3179 104.877 31.4083 106.529 34.7727 107.198C38.137 107.867 41.6243 107.524 44.7934 106.211C47.9626 104.898 50.6713 102.675 52.5771 99.8232C54.4828 96.971 55.5 93.6178 55.5 90.1875V38.1562H72.8438Z" fill="white"/>
<path d="M72.8438 72.8438C82.4224 72.8438 90.1875 65.0787 90.1875 55.5C90.1875 45.9213 82.4224 38.1562 72.8438 38.1562C63.2651 38.1562 55.5 45.9213 55.5 55.5C55.5 65.0787 63.2651 72.8438 72.8438 72.8438Z" fill="white"/>
</svg>
