<svg width="92" height="103" viewBox="0 0 92 103" fill="none" xmlns="http://www.w3.org/2000/svg">
<path d="M90.5968 1.15971C90.1805 0.700099 89.5822 0.439941 88.9578 0.439941H2.22169C1.59731 0.439941 0.998951 0.700099 0.582702 1.15971C0.157778 1.61932 -0.050347 2.23502 0.0103567 2.85939L7.82372 90.3846C7.90176 91.3038 8.54348 92.067 9.42802 92.3271L44.974 102.473C45.1648 102.534 45.3729 102.56 45.5811 102.56C45.7892 102.56 45.9886 102.534 46.1881 102.473L81.7601 92.3271C82.6447 92.067 83.2777 91.3038 83.3644 90.3846L91.1691 2.85939C91.2298 2.23502 91.0217 1.61932 90.5968 1.15971ZM71.8915 31.3378H30.1278L31.125 42.6373H70.8856L67.9025 76.0327L45.5724 82.7794L45.3556 82.71L23.2857 76.024L22.0803 62.4178H32.8941L33.3624 67.699L45.7025 70.2832L57.8171 67.699L59.1092 53.4077H21.2738L18.334 20.5413H72.8541L71.8915 31.3378Z" fill="white"/>
</svg>
