<svg width="506" height="368" viewBox="0 0 506 368" fill="none" xmlns="http://www.w3.org/2000/svg">
<g clip-path="url(#clip0_189_113)">
<path d="M294.744 64.8741C304.228 64.8741 311.915 57.1867 311.915 47.7038C311.915 38.2208 304.228 30.5334 294.744 30.5334C285.261 30.5334 277.573 38.2208 277.573 47.7038C277.573 57.1867 285.261 64.8741 294.744 64.8741Z" fill="#F2F2F2"/>
<path id="bolha" d="M431.22 315.102C456.253 295.037 467.63 262.079 459.228 231.116C459.019 230.347 458.8 229.58 458.57 228.815C453.054 210.449 440.105 193.185 421.72 187.729C406.284 183.147 389.663 187.377 373.638 185.8C342.181 182.705 317.238 157.934 299.471 131.791C281.705 105.649 267.819 76.2369 244.542 54.8525C206.174 19.6038 144.856 13.3303 98.9812 38.0313C53.1063 62.7323 24.808 115.712 27.3611 167.749C29.9143 219.787 62.0612 268.803 107.609 294.102C124.341 303.396 143.586 309.797 162.509 306.921C178.928 304.425 193.675 295.204 210.003 292.17C235.675 287.4 261.574 298.418 284.204 311.445C306.834 324.471 328.766 340.033 354.255 345.7C379.005 351.203 409.044 332.878 431.22 315.102Z" fill="#BF0000"/>
<path d="M391.276 35.5744C390.716 35.2015 390.151 34.8478 389.591 34.4876C373.418 24.1444 356.083 15.7417 337.944 9.45305L333.738 67.4705H307.075V0.983861C305.397 0.636605 303.706 0.308642 302.014 -3.05176e-05V67.4705H270.329C252.886 67.4705 236.157 60.5416 223.823 48.208C211.489 35.8744 204.56 19.1465 204.56 1.70417V1.70411C202.862 2.07066 201.177 2.46293 199.492 2.88093V67.4706H173.685L169.678 12.1475C151.038 19.296 133.342 28.6967 116.983 40.1402C116.7 40.3331 116.417 40.5325 116.141 40.7254C114.719 41.7222 113.317 42.7382 111.922 43.7671V265.104H187.981L186.637 246.487L179.241 144.272H328.175L320.78 246.487L319.436 265.104H394.652V37.8123C393.533 37.0535 392.408 36.3076 391.276 35.5744ZM199.492 127.392H178.019L174.051 72.5379H199.492V127.392ZM302.014 127.392H265.95V126.305C265.95 125.782 265.847 125.265 265.646 124.782C265.446 124.3 265.153 123.861 264.783 123.492C264.414 123.123 263.975 122.831 263.492 122.631C263.009 122.432 262.491 122.33 261.969 122.331H246.29C245.768 122.33 245.251 122.433 244.769 122.633C244.287 122.832 243.849 123.125 243.479 123.494C243.11 123.863 242.818 124.301 242.618 124.784C242.418 125.266 242.316 125.783 242.316 126.305V127.392H204.56V72.5379H302.014V127.392ZM307.076 127.392V72.5379H333.372L329.404 127.392H307.076Z" fill="#4A4796"/>
<path d="M0 279.278C5.58673 285.897 11.6294 292.118 18.0838 297.895L487.916 298.538C494.371 292.761 500.413 286.54 506 279.921L0 279.278Z" fill="#4A4796"/>
<path d="M318.608 219.666V274.779C318.609 275.482 318.888 276.155 319.385 276.652C319.882 277.149 320.555 277.428 321.257 277.428H402.933C403.636 277.428 404.309 277.149 404.806 276.652C405.302 276.155 405.582 275.482 405.582 274.779V219.666C405.581 218.964 405.301 218.292 404.804 217.796C404.308 217.3 403.635 217.021 402.933 217.02H321.257C320.556 217.021 319.883 217.3 319.386 217.796C318.89 218.292 318.61 218.964 318.608 219.666V219.666Z" fill="#3F3D56"/>
<path d="M320.524 220.352V274.1C320.525 274.475 320.674 274.835 320.94 275.1C321.205 275.365 321.565 275.515 321.94 275.515H402.253C402.629 275.515 402.988 275.365 403.254 275.1C403.519 274.835 403.668 274.475 403.669 274.1V220.352C403.669 219.976 403.52 219.616 403.255 219.35C402.989 219.084 402.629 218.934 402.253 218.933H321.94C321.564 218.934 321.204 219.084 320.939 219.35C320.674 219.616 320.524 219.976 320.524 220.352V220.352Z" fill="#004E41"/>
<path d="M316.9 285.528C317.05 285.716 317.24 285.867 317.457 285.97C317.673 286.074 317.91 286.127 318.15 286.126H405.606C405.845 286.126 406.081 286.072 406.297 285.969C406.513 285.866 406.703 285.716 406.854 285.531C407.004 285.345 407.112 285.128 407.168 284.895C407.224 284.663 407.228 284.421 407.179 284.187L405.821 277.739C405.765 277.476 405.644 277.231 405.469 277.027C405.294 276.822 405.071 276.665 404.819 276.57C404.638 276.498 404.444 276.462 404.248 276.462H319.502C319.307 276.462 319.113 276.498 318.931 276.57C318.68 276.665 318.457 276.822 318.282 277.027C318.107 277.231 317.986 277.476 317.929 277.739L316.572 284.187C316.523 284.421 316.528 284.662 316.585 284.894C316.642 285.126 316.749 285.343 316.9 285.528V285.528Z" fill="#2F2E41"/>
<path d="M401.247 279.239H403.313C403.486 279.239 403.627 279.099 403.627 278.925V277.937C403.627 277.764 403.486 277.623 403.313 277.623H401.247C401.074 277.623 400.933 277.764 400.933 277.937V278.925C400.933 279.099 401.074 279.239 401.247 279.239Z" fill="#3F3D56"/>
<path d="M395.861 279.239H397.926C398.1 279.239 398.24 279.099 398.24 278.925V277.937C398.24 277.764 398.1 277.623 397.926 277.623H395.861C395.687 277.623 395.547 277.764 395.547 277.937V278.925C395.547 279.099 395.687 279.239 395.861 279.239Z" fill="#3F3D56"/>
<path d="M390.473 279.239H392.539C392.712 279.239 392.853 279.099 392.853 278.925V277.937C392.853 277.764 392.712 277.623 392.539 277.623H390.473C390.3 277.623 390.159 277.764 390.159 277.937V278.925C390.159 279.099 390.3 279.239 390.473 279.239Z" fill="#3F3D56"/>
<path d="M385.086 279.239H387.152C387.325 279.239 387.466 279.099 387.466 278.925V277.937C387.466 277.764 387.325 277.623 387.152 277.623H385.086C384.913 277.623 384.772 277.764 384.772 277.937V278.925C384.772 279.099 384.913 279.239 385.086 279.239Z" fill="#3F3D56"/>
<path d="M379.699 279.239H381.765C381.938 279.239 382.079 279.099 382.079 278.925V277.937C382.079 277.764 381.938 277.623 381.765 277.623H379.699C379.526 277.623 379.385 277.764 379.385 277.937V278.925C379.385 279.099 379.526 279.239 379.699 279.239Z" fill="#3F3D56"/>
<path d="M374.312 279.239H376.377C376.551 279.239 376.691 279.099 376.691 278.925V277.937C376.691 277.764 376.551 277.623 376.377 277.623H374.312C374.138 277.623 373.998 277.764 373.998 277.937V278.925C373.998 279.099 374.138 279.239 374.312 279.239Z" fill="#3F3D56"/>
<path d="M368.925 279.239H370.99C371.164 279.239 371.304 279.099 371.304 278.925V277.937C371.304 277.764 371.164 277.623 370.99 277.623H368.925C368.751 277.623 368.611 277.764 368.611 277.937V278.925C368.611 279.099 368.751 279.239 368.925 279.239Z" fill="#3F3D56"/>
<path d="M363.537 279.239H365.603C365.776 279.239 365.917 279.099 365.917 278.925V277.937C365.917 277.764 365.776 277.623 365.603 277.623H363.537C363.364 277.623 363.223 277.764 363.223 277.937V278.925C363.223 279.099 363.364 279.239 363.537 279.239Z" fill="#3F3D56"/>
<path d="M358.15 279.239H360.216C360.389 279.239 360.53 279.099 360.53 278.925V277.937C360.53 277.764 360.389 277.623 360.216 277.623H358.15C357.977 277.623 357.836 277.764 357.836 277.937V278.925C357.836 279.099 357.977 279.239 358.15 279.239Z" fill="#3F3D56"/>
<path d="M352.763 279.239H354.829C355.002 279.239 355.143 279.099 355.143 278.925V277.937C355.143 277.764 355.002 277.623 354.829 277.623H352.763C352.59 277.623 352.449 277.764 352.449 277.937V278.925C352.449 279.099 352.59 279.239 352.763 279.239Z" fill="#3F3D56"/>
<path d="M347.376 279.239H349.441C349.615 279.239 349.755 279.099 349.755 278.925V277.937C349.755 277.764 349.615 277.623 349.441 277.623H347.376C347.202 277.623 347.062 277.764 347.062 277.937V278.925C347.062 279.099 347.202 279.239 347.376 279.239Z" fill="#3F3D56"/>
<path d="M341.989 279.239H344.054C344.228 279.239 344.368 279.099 344.368 278.925V277.937C344.368 277.764 344.228 277.623 344.054 277.623H341.989C341.815 277.623 341.675 277.764 341.675 277.937V278.925C341.675 279.099 341.815 279.239 341.989 279.239Z" fill="#3F3D56"/>
<path d="M336.601 279.239H338.667C338.84 279.239 338.981 279.099 338.981 278.925V277.937C338.981 277.764 338.84 277.623 338.667 277.623H336.601C336.428 277.623 336.287 277.764 336.287 277.937V278.925C336.287 279.099 336.428 279.239 336.601 279.239Z" fill="#3F3D56"/>
<path d="M331.214 279.239H333.28C333.453 279.239 333.594 279.099 333.594 278.925V277.937C333.594 277.764 333.453 277.623 333.28 277.623H331.214C331.041 277.623 330.9 277.764 330.9 277.937V278.925C330.9 279.099 331.041 279.239 331.214 279.239Z" fill="#3F3D56"/>
<path d="M325.827 279.239H327.893C328.066 279.239 328.207 279.099 328.207 278.925V277.937C328.207 277.764 328.066 277.623 327.893 277.623H325.827C325.653 277.623 325.513 277.764 325.513 277.937V278.925C325.513 279.099 325.653 279.239 325.827 279.239Z" fill="#3F3D56"/>
<path d="M320.44 279.239H322.505C322.679 279.239 322.819 279.099 322.819 278.925V277.937C322.819 277.764 322.679 277.623 322.505 277.623H320.44C320.266 277.623 320.126 277.764 320.126 277.937V278.925C320.126 279.099 320.266 279.239 320.44 279.239Z" fill="#3F3D56"/>
<path d="M401.311 281.933H403.377C403.55 281.933 403.691 281.792 403.691 281.619V280.631C403.691 280.457 403.55 280.317 403.377 280.317H401.311C401.138 280.317 400.997 280.457 400.997 280.631V281.619C400.997 281.792 401.138 281.933 401.311 281.933Z" fill="#3F3D56"/>
<path d="M395.924 281.933H397.99C398.163 281.933 398.304 281.792 398.304 281.619V280.631C398.304 280.457 398.163 280.317 397.99 280.317H395.924C395.751 280.317 395.61 280.457 395.61 280.631V281.619C395.61 281.792 395.751 281.933 395.924 281.933Z" fill="#3F3D56"/>
<path d="M390.537 281.933H392.603C392.776 281.933 392.917 281.792 392.917 281.619V280.631C392.917 280.457 392.776 280.317 392.603 280.317H390.537C390.363 280.317 390.223 280.457 390.223 280.631V281.619C390.223 281.792 390.363 281.933 390.537 281.933Z" fill="#3F3D56"/>
<path d="M385.15 281.933H387.215C387.389 281.933 387.529 281.792 387.529 281.619V280.631C387.529 280.457 387.389 280.317 387.215 280.317H385.15C384.976 280.317 384.836 280.457 384.836 280.631V281.619C384.836 281.792 384.976 281.933 385.15 281.933Z" fill="#3F3D56"/>
<path d="M379.762 281.933H381.828C382.002 281.933 382.142 281.792 382.142 281.619V280.631C382.142 280.457 382.002 280.317 381.828 280.317H379.762C379.589 280.317 379.449 280.457 379.449 280.631V281.619C379.449 281.792 379.589 281.933 379.762 281.933Z" fill="#3F3D56"/>
<path d="M374.375 281.933H376.441C376.614 281.933 376.755 281.792 376.755 281.619V280.631C376.755 280.457 376.614 280.317 376.441 280.317H374.375C374.202 280.317 374.061 280.457 374.061 280.631V281.619C374.061 281.792 374.202 281.933 374.375 281.933Z" fill="#3F3D56"/>
<path d="M368.988 281.933H371.054C371.227 281.933 371.368 281.792 371.368 281.619V280.631C371.368 280.457 371.227 280.317 371.054 280.317H368.988C368.815 280.317 368.674 280.457 368.674 280.631V281.619C368.674 281.792 368.815 281.933 368.988 281.933Z" fill="#3F3D56"/>
<path d="M363.601 281.933H365.666C365.84 281.933 365.98 281.792 365.98 281.619V280.631C365.98 280.457 365.84 280.317 365.666 280.317H363.601C363.427 280.317 363.287 280.457 363.287 280.631V281.619C363.287 281.792 363.427 281.933 363.601 281.933Z" fill="#3F3D56"/>
<path d="M358.214 281.933H360.279C360.453 281.933 360.593 281.792 360.593 281.619V280.631C360.593 280.457 360.453 280.317 360.279 280.317H358.214C358.04 280.317 357.9 280.457 357.9 280.631V281.619C357.9 281.792 358.04 281.933 358.214 281.933Z" fill="#3F3D56"/>
<path d="M352.826 281.933H354.892C355.065 281.933 355.206 281.792 355.206 281.619V280.631C355.206 280.457 355.065 280.317 354.892 280.317H352.826C352.653 280.317 352.512 280.457 352.512 280.631V281.619C352.512 281.792 352.653 281.933 352.826 281.933Z" fill="#3F3D56"/>
<path d="M347.439 281.933H349.505C349.678 281.933 349.819 281.792 349.819 281.619V280.631C349.819 280.457 349.678 280.317 349.505 280.317H347.439C347.266 280.317 347.125 280.457 347.125 280.631V281.619C347.125 281.792 347.266 281.933 347.439 281.933Z" fill="#3F3D56"/>
<path d="M342.052 281.933H344.118C344.291 281.933 344.432 281.792 344.432 281.619V280.631C344.432 280.457 344.291 280.317 344.118 280.317H342.052C341.879 280.317 341.738 280.457 341.738 280.631V281.619C341.738 281.792 341.879 281.933 342.052 281.933Z" fill="#3F3D56"/>
<path d="M336.665 281.933H338.731C338.904 281.933 339.044 281.792 339.044 281.619V280.631C339.044 280.457 338.904 280.317 338.731 280.317H336.665C336.491 280.317 336.351 280.457 336.351 280.631V281.619C336.351 281.792 336.491 281.933 336.665 281.933Z" fill="#3F3D56"/>
<path d="M331.278 281.933H333.343C333.517 281.933 333.657 281.792 333.657 281.619V280.631C333.657 280.457 333.517 280.317 333.343 280.317H331.278C331.104 280.317 330.964 280.457 330.964 280.631V281.619C330.964 281.792 331.104 281.933 331.278 281.933Z" fill="#3F3D56"/>
<path d="M325.89 281.933H327.956C328.129 281.933 328.27 281.792 328.27 281.619V280.631C328.27 280.457 328.129 280.317 327.956 280.317H325.89C325.717 280.317 325.576 280.457 325.576 280.631V281.619C325.576 281.792 325.717 281.933 325.89 281.933Z" fill="#3F3D56"/>
<path d="M320.503 281.933H322.569C322.742 281.933 322.883 281.792 322.883 281.619V280.631C322.883 280.457 322.742 280.317 322.569 280.317H320.503C320.33 280.317 320.189 280.457 320.189 280.631V281.619C320.189 281.792 320.33 281.933 320.503 281.933Z" fill="#3F3D56"/>
<path d="M356.598 285.165H377.519C377.692 285.165 377.833 285.024 377.833 284.851V283.863C377.833 283.689 377.692 283.549 377.519 283.549H356.598C356.424 283.549 356.284 283.689 356.284 283.863V284.851C356.284 285.024 356.424 285.165 356.598 285.165Z" fill="#3F3D56"/>
<path d="M334.432 230.692H332.604C332.049 230.692 331.6 231.141 331.6 231.696C331.6 232.25 332.049 232.7 332.604 232.7H334.432C334.987 232.7 335.436 232.25 335.436 231.696C335.436 231.141 334.987 230.692 334.432 230.692Z" fill="white"/>
<path d="M355.348 230.692H353.519C352.965 230.692 352.515 231.141 352.515 231.696C352.515 232.25 352.965 232.7 353.519 232.7H355.348C355.902 232.7 356.352 232.25 356.352 231.696C356.352 231.141 355.902 230.692 355.348 230.692Z" fill="white"/>
<path d="M361.274 230.692H359.445C358.891 230.692 358.441 231.141 358.441 231.696C358.441 232.25 358.891 232.7 359.445 232.7H361.274C361.829 232.7 362.278 232.25 362.278 231.696C362.278 231.141 361.829 230.692 361.274 230.692Z" fill="white"/>
<path d="M349.659 230.525H338.293C337.739 230.525 337.289 230.974 337.289 231.528C337.289 232.083 337.739 232.532 338.293 232.532H349.659C350.213 232.532 350.663 232.083 350.663 231.528C350.663 230.974 350.213 230.525 349.659 230.525Z" fill="white"/>
<path d="M377.546 230.525H366.18C365.625 230.525 365.176 230.974 365.176 231.528C365.176 232.083 365.625 232.532 366.18 232.532H377.546C378.1 232.532 378.55 232.083 378.55 231.528C378.55 230.974 378.1 230.525 377.546 230.525Z" fill="white"/>
<path d="M340.01 235.223H338.181C337.627 235.223 337.177 235.673 337.177 236.227C337.177 236.782 337.627 237.231 338.181 237.231H340.01C340.564 237.231 341.014 236.782 341.014 236.227C341.014 235.673 340.564 235.223 340.01 235.223Z" fill="white"/>
<path d="M360.925 235.223H359.097C358.542 235.223 358.093 235.673 358.093 236.227C358.093 236.782 358.542 237.231 359.097 237.231H360.925C361.48 237.231 361.929 236.782 361.929 236.227C361.929 235.673 361.48 235.223 360.925 235.223Z" fill="white"/>
<path d="M366.851 235.223H365.022C364.468 235.223 364.019 235.673 364.019 236.227C364.019 236.782 364.468 237.231 365.022 237.231H366.851C367.406 237.231 367.855 236.782 367.855 236.227C367.855 235.673 367.406 235.223 366.851 235.223Z" fill="white"/>
<path d="M355.236 235.056H343.87C343.316 235.056 342.866 235.505 342.866 236.06C342.866 236.614 343.316 237.064 343.87 237.064H355.236C355.791 237.064 356.24 236.614 356.24 236.06C356.24 235.505 355.791 235.056 355.236 235.056Z" fill="white"/>
<path d="M383.123 235.056H371.757C371.203 235.056 370.753 235.505 370.753 236.06C370.753 236.614 371.203 237.064 371.757 237.064H383.123C383.678 237.064 384.127 236.614 384.127 236.06C384.127 235.505 383.678 235.056 383.123 235.056Z" fill="white"/>
<path d="M345.588 239.755H343.759C343.204 239.755 342.755 240.204 342.755 240.759C342.755 241.313 343.204 241.763 343.759 241.763H345.588C346.142 241.763 346.591 241.313 346.591 240.759C346.591 240.204 346.142 239.755 345.588 239.755Z" fill="white"/>
<path d="M366.503 239.755H364.674C364.119 239.755 363.67 240.204 363.67 240.759C363.67 241.313 364.119 241.763 364.674 241.763H366.503C367.057 241.763 367.507 241.313 367.507 240.759C367.507 240.204 367.057 239.755 366.503 239.755Z" fill="white"/>
<path d="M372.429 239.755H370.6C370.046 239.755 369.596 240.204 369.596 240.759C369.596 241.313 370.046 241.763 370.6 241.763H372.429C372.983 241.763 373.433 241.313 373.433 240.759C373.433 240.204 372.983 239.755 372.429 239.755Z" fill="white"/>
<path d="M360.814 239.587H349.448C348.893 239.587 348.444 240.037 348.444 240.591C348.444 241.146 348.893 241.595 349.448 241.595H360.814C361.368 241.595 361.818 241.146 361.818 240.591C361.818 240.037 361.368 239.587 360.814 239.587Z" fill="white"/>
<path d="M388.701 239.587H377.335C376.781 239.587 376.331 240.037 376.331 240.591C376.331 241.146 376.781 241.595 377.335 241.595H388.701C389.256 241.595 389.705 241.146 389.705 240.591C389.705 240.037 389.256 239.587 388.701 239.587Z" fill="white"/>
<path d="M351.165 244.286H349.336C348.782 244.286 348.332 244.736 348.332 245.29C348.332 245.845 348.782 246.294 349.336 246.294H351.165C351.719 246.294 352.169 245.845 352.169 245.29C352.169 244.736 351.719 244.286 351.165 244.286Z" fill="white"/>
<path d="M372.08 244.286H370.251C369.697 244.286 369.248 244.736 369.248 245.29C369.248 245.845 369.697 246.294 370.251 246.294H372.08C372.635 246.294 373.084 245.845 373.084 245.29C373.084 244.736 372.635 244.286 372.08 244.286Z" fill="white"/>
<path d="M378.006 244.286H376.177C375.623 244.286 375.173 244.736 375.173 245.29C375.173 245.845 375.623 246.294 376.177 246.294H378.006C378.56 246.294 379.01 245.845 379.01 245.29C379.01 244.736 378.56 244.286 378.006 244.286Z" fill="white"/>
<path d="M366.391 244.119H355.025C354.47 244.119 354.021 244.568 354.021 245.123C354.021 245.677 354.47 246.127 355.025 246.127H366.391C366.945 246.127 367.395 245.677 367.395 245.123C367.395 244.568 366.945 244.119 366.391 244.119Z" fill="white"/>
<path d="M355.348 262.305H353.519C352.965 262.305 352.515 262.755 352.515 263.309C352.515 263.864 352.965 264.313 353.519 264.313H355.348C355.902 264.313 356.352 263.864 356.352 263.309C356.352 262.755 355.902 262.305 355.348 262.305Z" fill="white"/>
<path d="M361.274 262.305H359.445C358.891 262.305 358.441 262.755 358.441 263.309C358.441 263.864 358.891 264.313 359.445 264.313H361.274C361.829 264.313 362.278 263.864 362.278 263.309C362.278 262.755 361.829 262.305 361.274 262.305Z" fill="white"/>
<path d="M377.546 262.473H366.18C365.625 262.473 365.176 262.922 365.176 263.477C365.176 264.031 365.625 264.481 366.18 264.481H377.546C378.1 264.481 378.55 264.031 378.55 263.477C378.55 262.922 378.1 262.473 377.546 262.473Z" fill="white"/>
<path d="M334.432 262.305H332.604C332.049 262.305 331.6 262.755 331.6 263.309C331.6 263.864 332.049 264.313 332.604 264.313H334.432C334.987 264.313 335.436 263.864 335.436 263.309C335.436 262.755 334.987 262.305 334.432 262.305Z" fill="white"/>
<path d="M349.659 262.473H338.293C337.739 262.473 337.289 262.922 337.289 263.477C337.289 264.031 337.739 264.481 338.293 264.481H349.659C350.213 264.481 350.663 264.031 350.663 263.477C350.663 262.922 350.213 262.473 349.659 262.473Z" fill="white"/>
<path d="M340.01 257.774H338.181C337.627 257.774 337.177 258.223 337.177 258.778C337.177 259.332 337.627 259.782 338.181 259.782H340.01C340.564 259.782 341.014 259.332 341.014 258.778C341.014 258.223 340.564 257.774 340.01 257.774Z" fill="white"/>
<path d="M360.925 257.774H359.097C358.542 257.774 358.093 258.223 358.093 258.778C358.093 259.332 358.542 259.782 359.097 259.782H360.925C361.48 259.782 361.929 259.332 361.929 258.778C361.929 258.223 361.48 257.774 360.925 257.774Z" fill="white"/>
<path d="M366.851 257.774H365.022C364.468 257.774 364.019 258.223 364.019 258.778C364.019 259.332 364.468 259.782 365.022 259.782H366.851C367.406 259.782 367.855 259.332 367.855 258.778C367.855 258.223 367.406 257.774 366.851 257.774Z" fill="white"/>
<path d="M355.236 257.941H343.87C343.316 257.941 342.866 258.391 342.866 258.945C342.866 259.5 343.316 259.949 343.87 259.949H355.236C355.791 259.949 356.24 259.5 356.24 258.945C356.24 258.391 355.791 257.941 355.236 257.941Z" fill="white"/>
<path d="M345.588 253.242H343.759C343.204 253.242 342.755 253.692 342.755 254.246C342.755 254.801 343.204 255.25 343.759 255.25H345.588C346.142 255.25 346.591 254.801 346.591 254.246C346.591 253.692 346.142 253.242 345.588 253.242Z" fill="white"/>
<path d="M366.503 253.242H364.674C364.119 253.242 363.67 253.692 363.67 254.246C363.67 254.801 364.119 255.25 364.674 255.25H366.503C367.057 255.25 367.507 254.801 367.507 254.246C367.507 253.692 367.057 253.242 366.503 253.242Z" fill="white"/>
<path d="M372.429 253.242H370.6C370.046 253.242 369.596 253.692 369.596 254.246C369.596 254.801 370.046 255.25 370.6 255.25H372.429C372.983 255.25 373.433 254.801 373.433 254.246C373.433 253.692 372.983 253.242 372.429 253.242Z" fill="white"/>
<path d="M360.814 253.41H349.448C348.893 253.41 348.444 253.859 348.444 254.414C348.444 254.968 348.893 255.418 349.448 255.418H360.814C361.368 255.418 361.818 254.968 361.818 254.414C361.818 253.859 361.368 253.41 360.814 253.41Z" fill="white"/>
<path d="M351.165 248.711H349.336C348.782 248.711 348.332 249.16 348.332 249.715C348.332 250.269 348.782 250.719 349.336 250.719H351.165C351.719 250.719 352.169 250.269 352.169 249.715C352.169 249.16 351.719 248.711 351.165 248.711Z" fill="white"/>
<path d="M372.08 248.711H370.251C369.697 248.711 369.248 249.16 369.248 249.715C369.248 250.269 369.697 250.719 370.251 250.719H372.08C372.635 250.719 373.084 250.269 373.084 249.715C373.084 249.16 372.635 248.711 372.08 248.711Z" fill="white"/>
<path d="M378.006 248.711H376.177C375.623 248.711 375.173 249.16 375.173 249.715C375.173 250.269 375.623 250.719 376.177 250.719H378.006C378.56 250.719 379.01 250.269 379.01 249.715C379.01 249.16 378.56 248.711 378.006 248.711Z" fill="white"/>
<path d="M366.391 248.878H355.025C354.47 248.878 354.021 249.328 354.021 249.882C354.021 250.437 354.47 250.886 355.025 250.886H366.391C366.945 250.886 367.395 250.437 367.395 249.882C367.395 249.328 366.945 248.878 366.391 248.878Z" fill="white"/>
<path d="M324.71 315.412L316.125 301.843L343.072 280.362L354.195 268.041C355.64 266.44 357.479 265.246 359.53 264.579C361.581 263.912 363.771 263.795 365.881 264.239C367.992 264.684 369.949 265.674 371.556 267.112C373.164 268.549 374.366 270.384 375.042 272.431C376.045 275.466 375.829 278.771 374.441 281.649C373.053 284.528 370.601 286.754 367.602 287.859L350.014 294.338L324.71 315.412Z" fill="#B88263"/>
<path d="M123.275 217.023V282.976H169.481V217.023C169.482 216.548 169.331 216.086 169.049 215.704C168.768 215.322 168.372 215.041 167.919 214.901C167.705 214.83 167.481 214.795 167.256 214.798H125.506C125.214 214.797 124.924 214.854 124.653 214.966C124.383 215.077 124.137 215.241 123.93 215.448C123.722 215.654 123.558 215.9 123.445 216.17C123.333 216.44 123.275 216.73 123.275 217.023V217.023ZM141.307 239.684C141.319 238.384 141.844 237.141 142.768 236.226C143.692 235.311 144.939 234.798 146.24 234.798C147.54 234.798 148.788 235.311 149.712 236.226C150.635 237.141 151.16 238.384 151.172 239.684V247.337C151.166 248.641 150.643 249.889 149.719 250.808C148.794 251.728 147.544 252.244 146.24 252.244C144.936 252.244 143.685 251.728 142.761 250.808C141.837 249.889 141.314 248.641 141.307 247.337V239.684Z" fill="#2F2E41"/>
<path d="M123.133 280.866V287.226C123.134 287.556 123.265 287.872 123.498 288.105C123.73 288.339 124.045 288.471 124.374 288.474H168.381C168.711 288.472 169.027 288.34 169.26 288.106C169.492 287.873 169.623 287.556 169.623 287.226V280.866H123.133Z" fill="#3F3D56"/>
<path d="M50.5859 117.656V238.077C50.5872 239.611 51.1973 241.083 52.2825 242.168C53.3677 243.253 54.8391 243.863 56.3738 243.864H234.833C236.367 243.863 237.839 243.253 238.924 242.168C240.009 241.083 240.619 239.611 240.621 238.077V117.656C240.617 116.123 240.006 114.653 238.921 113.57C237.836 112.486 236.366 111.877 234.833 111.875H56.3738C54.8405 111.877 53.3704 112.486 52.2856 113.57C51.2008 114.654 50.5896 116.123 50.5859 117.656Z" fill="#3F3D56"/>
<path d="M54.7725 119.154V236.591C54.7739 237.411 55.1002 238.197 55.68 238.777C56.2598 239.357 57.0458 239.683 57.8657 239.684H233.347C234.167 239.683 234.953 239.357 235.533 238.777C236.113 238.197 236.439 237.411 236.44 236.591V119.154C236.44 118.333 236.115 117.546 235.535 116.965C234.955 116.384 234.168 116.057 233.347 116.055H57.8657C57.0448 116.057 56.2581 116.384 55.6782 116.965C55.0983 117.546 54.7725 118.333 54.7725 119.154Z" fill="white"/>
<path d="M87.3387 288.043C87.5173 288.267 87.7443 288.448 88.0027 288.571C88.2611 288.695 88.5442 288.758 88.8307 288.757H193.231C193.516 288.756 193.798 288.692 194.056 288.57C194.313 288.447 194.54 288.268 194.72 288.046C194.9 287.824 195.028 287.565 195.095 287.288C195.163 287.01 195.167 286.721 195.109 286.442L193.488 278.744C193.421 278.43 193.276 278.138 193.067 277.895C192.858 277.651 192.592 277.463 192.292 277.349C192.075 277.264 191.843 277.22 191.61 277.22H90.4448C90.2115 277.22 89.9803 277.264 89.7631 277.349C89.4632 277.463 89.1966 277.651 88.9877 277.895C88.7788 278.138 88.6341 278.43 88.567 278.744L86.9464 286.442C86.8887 286.721 86.894 287.01 86.9619 287.287C87.0297 287.564 87.1584 287.822 87.3387 288.043Z" fill="#2F2E41"/>
<path d="M227.652 132.232H63.455C63.2844 132.228 63.122 132.158 63.0026 132.036C62.8832 131.914 62.8164 131.75 62.8164 131.579C62.8164 131.409 62.8832 131.245 63.0026 131.123C63.122 131.001 63.2844 130.93 63.455 130.926H227.652C227.823 130.93 227.985 131.001 228.105 131.123C228.224 131.245 228.291 131.409 228.291 131.579C228.291 131.75 228.224 131.914 228.105 132.036C227.985 132.158 227.823 132.228 227.652 132.232V132.232Z" fill="#3F3D56"/>
<path d="M74.6319 127.593C76.7453 127.593 78.4586 125.841 78.4586 123.681C78.4586 121.52 76.7453 119.769 74.6319 119.769C72.5184 119.769 70.8052 121.52 70.8052 123.681C70.8052 125.841 72.5184 127.593 74.6319 127.593Z" fill="#3F3D56"/>
<path d="M87.8516 127.593C89.965 127.593 91.6783 125.841 91.6783 123.681C91.6783 121.52 89.965 119.769 87.8516 119.769C85.7382 119.769 84.0249 121.52 84.0249 123.681C84.0249 125.841 85.7382 127.593 87.8516 127.593Z" fill="#3F3D56"/>
<path d="M101.071 127.593C103.184 127.593 104.898 125.841 104.898 123.681C104.898 121.52 103.184 119.769 101.071 119.769C98.9574 119.769 97.2441 121.52 97.2441 123.681C97.2441 125.841 98.9574 127.593 101.071 127.593Z" fill="#3F3D56"/>
<path d="M219.692 120.736H210.303C210.117 120.741 209.941 120.817 209.811 120.95C209.681 121.083 209.608 121.261 209.608 121.447C209.608 121.633 209.681 121.811 209.811 121.944C209.941 122.076 210.117 122.153 210.303 122.158H219.692C219.879 122.155 220.057 122.079 220.188 121.946C220.319 121.813 220.393 121.634 220.393 121.447C220.393 121.26 220.319 121.081 220.188 120.948C220.057 120.815 219.879 120.739 219.692 120.736Z" fill="#3F3D56"/>
<path d="M219.692 123.405H210.303C210.117 123.409 209.94 123.486 209.81 123.619C209.68 123.752 209.607 123.93 209.607 124.116C209.607 124.301 209.68 124.48 209.81 124.613C209.94 124.745 210.117 124.822 210.303 124.826H219.692C219.879 124.824 220.057 124.748 220.189 124.615C220.32 124.482 220.394 124.303 220.394 124.116C220.394 123.929 220.32 123.749 220.189 123.616C220.057 123.483 219.879 123.407 219.692 123.405V123.405Z" fill="#3F3D56"/>
<path d="M219.692 126.074H210.303C210.117 126.078 209.941 126.155 209.811 126.288C209.681 126.42 209.608 126.599 209.608 126.784C209.608 126.97 209.681 127.148 209.811 127.281C209.941 127.414 210.117 127.491 210.303 127.495H219.692C219.879 127.492 220.057 127.416 220.188 127.283C220.319 127.15 220.393 126.971 220.393 126.784C220.393 126.598 220.319 126.418 220.188 126.285C220.057 126.152 219.879 126.076 219.692 126.074V126.074Z" fill="#3F3D56"/>
<path d="M446.048 283.658C446.332 284.482 446.869 285.196 447.583 285.697C448.298 286.197 449.152 286.458 450.025 286.443L467.061 286.004C467.94 285.987 468.789 285.686 469.482 285.146C470.176 284.607 470.676 283.857 470.908 283.01L473.318 257.231C474.174 257.618 475.105 257.81 476.044 257.791C476.86 257.77 477.663 257.589 478.409 257.258C479.155 256.927 479.828 256.453 480.39 255.861C480.952 255.27 481.393 254.574 481.686 253.813C481.979 253.051 482.12 252.24 482.099 251.424C482.079 250.608 481.898 249.805 481.567 249.059C481.236 248.313 480.761 247.64 480.17 247.078C479.578 246.516 478.882 246.075 478.121 245.782C477.359 245.489 476.548 245.348 475.732 245.369C475.357 245.368 474.982 245.407 474.615 245.485C474.216 245.053 473.731 244.71 473.191 244.477C472.652 244.244 472.069 244.127 471.481 244.133L445.275 244.809C445.057 244.817 444.841 244.844 444.628 244.89C444.053 244.997 443.508 245.226 443.03 245.561C442.551 245.897 442.149 246.331 441.852 246.834C441.556 247.338 441.37 247.899 441.308 248.48C441.246 249.062 441.31 249.65 441.494 250.204L446.048 283.658ZM473.813 255.48L475.528 249.337C475.724 248.628 475.728 247.879 475.541 247.167C475.625 247.167 475.698 247.128 475.781 247.127C476.958 247.103 478.096 247.546 478.946 248.36C479.796 249.173 480.289 250.29 480.316 251.466C480.344 252.643 479.904 253.782 479.093 254.634C478.282 255.486 477.166 255.982 475.989 256.013C475.229 256.037 474.476 255.852 473.813 255.48Z" fill="#2F2E41"/>
<path d="M444.628 244.89C445.186 248.082 451.463 250.326 459.011 249.936C465.952 249.616 471.627 247.179 472.667 244.291C472.282 244.177 471.882 244.124 471.481 244.133L445.274 244.809C445.057 244.817 444.841 244.844 444.628 244.89V244.89Z" fill="#3F3D56"/>
<path d="M460.394 269.492C460.429 269.483 460.462 269.469 460.491 269.449L464.191 267.028C464.236 266.999 464.273 266.959 464.298 266.912C464.324 266.865 464.337 266.812 464.337 266.759C464.337 266.705 464.324 266.653 464.298 266.606C464.273 266.559 464.236 266.519 464.191 266.49L460.346 263.971C460.311 263.948 460.271 263.932 460.229 263.924C460.188 263.916 460.145 263.916 460.104 263.924C460.062 263.933 460.023 263.95 459.988 263.973C459.953 263.997 459.923 264.028 459.9 264.063C459.877 264.098 459.861 264.138 459.853 264.18C459.845 264.221 459.845 264.264 459.854 264.305C459.863 264.347 459.88 264.386 459.903 264.421C459.927 264.456 459.958 264.486 459.994 264.509L463.428 266.758L460.139 268.911C460.076 268.953 460.029 269.016 460.007 269.089C459.986 269.162 459.99 269.24 460.021 269.31C460.052 269.379 460.106 269.436 460.174 269.469C460.243 269.503 460.321 269.511 460.394 269.492H460.394Z" fill="#0CE8C4"/>
<path d="M454.551 269.761C454.613 269.746 454.669 269.712 454.712 269.664C454.754 269.616 454.782 269.557 454.79 269.493C454.799 269.43 454.789 269.365 454.76 269.308C454.732 269.25 454.687 269.203 454.632 269.171L451.221 267.216L454.518 264.767C454.552 264.742 454.58 264.711 454.602 264.674C454.623 264.638 454.638 264.598 454.644 264.556C454.65 264.515 454.648 264.472 454.638 264.431C454.627 264.39 454.609 264.352 454.584 264.318C454.559 264.284 454.527 264.255 454.491 264.234C454.455 264.212 454.415 264.198 454.373 264.192C454.331 264.185 454.289 264.188 454.248 264.198C454.207 264.208 454.168 264.226 454.134 264.252L450.444 266.993C450.401 267.025 450.367 267.067 450.344 267.115C450.322 267.163 450.311 267.216 450.315 267.27C450.318 267.323 450.334 267.375 450.362 267.42C450.39 267.465 450.429 267.503 450.476 267.53L454.312 269.729C454.384 269.77 454.47 269.782 454.551 269.761V269.761Z" fill="#0CE8C4"/>
<path d="M460.026 271.614C460.058 271.606 460.087 271.594 460.115 271.577C460.151 271.555 460.182 271.526 460.207 271.492C460.232 271.458 460.25 271.419 460.26 271.378C460.27 271.337 460.272 271.295 460.265 271.253C460.259 271.211 460.244 271.171 460.222 271.135L454.977 262.513C454.933 262.44 454.862 262.388 454.779 262.368C454.696 262.348 454.608 262.361 454.536 262.406C454.463 262.45 454.411 262.521 454.39 262.604C454.37 262.687 454.384 262.774 454.428 262.847L459.673 271.47C459.709 271.528 459.762 271.574 459.826 271.6C459.89 271.626 459.96 271.631 460.026 271.614Z" fill="#0CE8C4"/>
<path d="M165.172 167.729H136.753C135.594 167.729 134.654 168.669 134.654 169.828V172.605C134.654 173.764 135.594 174.704 136.753 174.704H165.172C166.332 174.704 167.272 173.764 167.272 172.605V169.828C167.272 168.669 166.332 167.729 165.172 167.729Z" fill="#0CE8C4"/>
<path d="M181.737 181.678H120.188C119.029 181.678 118.089 182.618 118.089 183.777V186.554C118.089 187.713 119.029 188.653 120.188 188.653H181.737C182.897 188.653 183.836 187.713 183.836 186.554V183.777C183.836 182.618 182.897 181.678 181.737 181.678Z" fill="#E6E6E6"/>
<path d="M181.737 195.627H120.188C119.029 195.627 118.089 196.567 118.089 197.726V200.503C118.089 201.662 119.029 202.602 120.188 202.602H181.737C182.897 202.602 183.836 201.662 183.836 200.503V197.726C183.836 196.567 182.897 195.627 181.737 195.627Z" fill="#E6E6E6"/>
<path d="M233.697 168.961L259.711 173.623L259.763 229L264.191 255.634C264.766 259.094 264.422 262.577 263.191 265.734C261.961 268.891 259.889 271.612 257.181 273.625C254.473 275.638 251.225 276.873 247.761 277.205C244.296 277.538 240.738 276.957 237.44 275.521C232.554 273.392 228.557 269.526 226.295 264.737C224.033 259.948 223.682 254.611 225.316 249.853L234.898 221.949L233.697 168.961Z" fill="#B88263"/>
<path d="M187.407 240.33L187 241.062L187.007 241.076L191.22 253.091L196.067 266.937L205.185 292.957L205.273 296.998V297.012L205.951 329.527L204.073 333.935L206.187 341.162C206.187 341.162 205.214 330.237 200 336.511C197.046 340.076 193.592 343.724 190.756 347.144C194.888 348.712 199.086 350.131 203.351 351.4C204.272 351.676 205.2 351.939 206.128 352.201C206.327 352.257 206.525 352.312 206.724 352.367C220.86 356.289 235.475 358.492 250.209 358.924C250.975 358.945 251.726 358.959 252.455 358.972C252.713 358.979 252.964 358.986 253.214 358.986C254.039 358.993 254.856 359 255.681 359C257.346 359 259.003 358.977 260.653 358.931C272.864 358.608 285.004 357.068 296.868 354.336C296.787 349.742 296.566 344.373 296.249 338.639C296.102 335.827 292.795 332.78 292.596 329.837C292.456 327.626 295.424 325.546 295.27 323.301C294.268 309.475 293.016 314.782 292.088 304.992C291.992 304.032 291.904 303.113 291.823 302.236C291.226 295.948 290.814 292.017 290.814 292.017L294.776 268.588L301 231.804L300.521 231.065L299.984 230.816L267.156 215.574L265.374 211.291C264.855 210.057 263.954 208.996 262.787 208.247C261.62 207.497 260.241 207.091 258.826 207.083L237.202 207C236.08 206.995 234.972 207.242 233.972 207.719C232.972 208.196 232.107 208.89 231.45 209.743L225.594 217.35L187.407 240.33Z" fill="#0CE8C4"/>
<path d="M210 281.938L205.733 290.614L202.82 296.54L197.809 321.47L195.3 324L193.15 315.043L170.653 319.789C169.915 315.894 170.456 319.921 170 315.647C170.128 315.525 170.263 315.404 170.398 315.282C170.757 314.965 171.059 314.666 171.052 314.379C170.796 299.637 171.566 274.549 177.995 259.35C179.002 256.868 180.329 254.515 181.947 252.345C181 259.514 178.5 251.346 180.5 249.626C183.464 245.682 184.844 243.36 187.5 240.598L189.814 241.255C189.83 241.242 189.846 241.228 189.859 241.212C189.868 241.208 189.877 241.201 189.884 241.194L208.133 232L208.916 252.9L209.474 267.922L210 281.938Z" fill="#0CE8C4"/>
<path d="M285 291.912L291.09 304.351L293.215 308.683L298.939 337.299L301.796 340.196L304.257 329.917L305.414 329.69L326.273 325.566L332.352 344C333.723 341.82 334.262 339.256 333.881 336.74C333.499 334.224 332.219 331.911 330.257 330.192C329.841 329.834 329.495 329.484 329.505 329.154C329.851 309.25 328.576 272.904 317.059 257.945C313.401 253.198 311.207 248.469 308.014 245.166C308.004 245.157 308.004 245.147 307.994 245.147L300.224 233L299.749 232.255L299.216 232L285 291.912Z" fill="#0CE8C4"/>
<path d="M248.49 203.482C264.316 203.482 277.145 190.653 277.145 174.828C277.145 159.003 264.316 146.174 248.49 146.174C232.664 146.174 219.834 159.003 219.834 174.828C219.834 190.653 232.664 203.482 248.49 203.482Z" fill="#B88263"/>
<path d="M287.221 154.813C286.998 154.576 286.731 154.386 286.433 154.254C286.136 154.123 285.816 154.053 285.491 154.048L285.921 152.852C286.062 152.475 286.1 152.068 286.031 151.671C285.963 151.275 285.79 150.904 285.531 150.597C285.272 150.289 284.936 150.056 284.557 149.921C284.178 149.786 283.77 149.755 283.375 149.829L281.806 150.132L281.954 149.083C282.01 148.693 281.964 148.295 281.82 147.927C281.676 147.56 281.439 147.237 281.132 146.989C280.826 146.741 280.459 146.577 280.07 146.514C279.681 146.45 279.281 146.489 278.912 146.627C278.575 146.759 278.214 146.815 277.853 146.789C277.493 146.764 277.142 146.658 276.828 146.479C276.513 146.306 276.239 146.066 276.025 145.776C275.812 145.486 275.665 145.153 275.593 144.801L275.047 142.164L274.989 142.023C272.326 137.585 267.207 134.357 260.944 133.174C255.368 132.113 249.651 132.653 244.14 133.161C241.953 133.367 239.484 133.598 237.426 134.859C235.676 135.939 234.197 138.1 234.5 140.28C229.065 138.614 223.239 141.939 220.352 146.132C216.93 151.122 216.371 157.373 216.281 162.26C216.036 173.822 218.422 183.282 223.355 190.381C223.715 190.896 223.805 191.97 224.519 192.33L224.371 192.092C225.168 192.49 225.979 193.133 225.676 193.822C224.808 195.802 230.577 200.182 234.641 201.628C242.056 204.271 251.915 204.046 258.847 203.095L259.092 201.455C261.593 201.114 263.355 200.464 263.85 199.448C264.725 198.702 265.471 198.034 266.121 197.416L266.127 197.41C266.14 197.397 266.166 197.378 266.178 197.365C269.31 194.362 270.037 192.651 270.365 190.047C270.68 187.494 270.121 184.902 269.548 182.568C281.6 184.433 264.802 169.732 276.031 166.89C276.159 166.85 276.29 166.818 276.423 166.794C276.751 166.716 277.079 166.639 277.394 166.549C278.913 166.137 280.367 165.516 281.716 164.704C284.854 162.794 285.889 160.26 287.51 157.405C287.744 156.998 287.842 156.528 287.79 156.062C287.738 155.595 287.538 155.158 287.221 154.813Z" fill="#27262D"/>
<path d="M349.839 296.735C349.832 297.86 349.82 299.436 349.768 301.384C349.762 301.654 349.755 301.931 349.749 302.214C349.665 305.796 349.582 308.799 349.447 312.136C349.44 312.368 349.434 312.593 349.421 312.824C349.241 317.48 348.958 322.901 348.469 331.486C347.562 347.344 345.98 333.666 344.392 339.229C344.315 339.505 344.231 339.833 344.154 340.219C343.913 341.619 343.508 342.985 342.945 344.289C342.102 344.791 341.234 345.273 340.379 345.756C337.942 347.113 335.466 348.418 332.971 349.659C331.569 350.354 330.16 351.035 328.745 351.691C328.52 351.794 328.302 351.897 328.083 351.993C320.838 355.344 313.371 358.194 305.735 360.521C304.244 360.971 302.758 361.408 301.253 361.813C299.684 362.25 298.115 362.662 296.526 363.048C284.71 365.949 272.618 367.585 260.455 367.929C258.815 367.98 257.163 367.999 255.503 367.999C254.68 367.999 253.87 367.993 253.047 367.987C252.796 367.987 252.545 367.98 252.294 367.974C251.568 367.954 250.815 367.941 250.056 367.922C235.38 367.464 220.824 365.124 206.744 360.958L206.146 360.784C205.22 360.501 204.3 360.225 203.38 359.929C199.136 358.585 194.954 357.08 190.834 355.415C187.689 354.148 184.581 352.789 181.509 351.338C181.481 351.33 181.455 351.317 181.432 351.299C180.789 351.003 180.139 350.694 179.496 350.379C179.412 350.334 179.322 350.289 179.232 350.244C176.833 349.074 174.46 347.848 172.113 346.566C170.139 342.032 167.361 341.164 165.637 337.177C165.136 335.993 164.773 334.754 164.557 333.486C164.557 333.473 164.55 333.46 164.55 333.441C164.73 335.833 163.785 329.197 164.544 333.415C164.538 333.338 164.531 333.254 164.525 333.158C164.505 332.926 164.48 332.644 164.441 332.29C162.235 310.754 162.377 286.124 161.419 265.829C161.354 264.517 161.288 263.261 161.219 262.061C161.2 261.662 161.174 261.27 161.148 260.884C161.193 260.768 161.245 260.646 161.303 260.53C161.315 260.497 161.33 260.464 161.348 260.434C161.367 260.394 161.388 260.355 161.412 260.318C161.425 260.299 161.444 260.273 161.457 260.254C161.467 260.231 161.477 260.21 161.489 260.189C161.547 260.099 161.611 260.003 161.682 259.913C161.714 259.874 161.74 259.842 161.772 259.81C161.794 259.777 161.82 259.747 161.849 259.72C161.869 259.689 161.893 259.661 161.92 259.636C161.946 259.61 161.972 259.578 162.004 259.546C162.017 259.526 162.035 259.508 162.055 259.495C162.106 259.436 162.162 259.383 162.222 259.334C162.452 259.123 162.697 258.929 162.956 258.755C163.046 258.697 163.142 258.639 163.232 258.575C163.88 258.187 164.563 257.86 165.271 257.598C165.515 257.508 165.759 257.424 166.023 257.334C166.12 257.308 166.21 257.276 166.306 257.244C166.448 257.199 166.589 257.154 166.737 257.122C167.47 256.903 168.261 256.717 169.116 256.543C169.219 256.524 169.329 256.504 169.438 256.479C169.592 256.447 169.753 256.421 169.914 256.395C170.132 256.357 170.358 256.318 170.583 256.279C172.493 255.977 174.66 255.752 177.052 255.604C177.277 255.591 177.502 255.578 177.727 255.566C177.991 255.553 178.255 255.54 178.525 255.527C178.75 255.514 178.981 255.508 179.213 255.501C179.438 255.488 179.67 255.482 179.908 255.476C180.557 255.456 181.226 255.437 181.908 255.424C183.85 255.386 185.895 255.398 188.043 255.443C189.039 255.469 190.056 255.495 191.097 255.54C191.168 255.54 191.232 255.546 191.297 255.546C192.203 255.578 193.117 255.617 194.056 255.668C194.712 255.701 195.374 255.733 196.036 255.771C196.66 255.81 197.29 255.849 197.927 255.894C198.422 255.919 198.917 255.958 199.419 255.99C199.843 256.022 200.268 256.054 200.692 256.08L201.271 256.119C201.586 256.144 201.901 256.164 202.223 256.196C202.93 256.254 203.638 256.312 204.358 256.369C205.072 256.434 205.799 256.498 206.525 256.562C207.252 256.627 207.985 256.697 208.718 256.768C208.795 256.775 208.866 256.781 208.937 256.787C209.606 256.858 210.274 256.922 210.95 256.993C211.104 257.006 211.265 257.019 211.419 257.038C212.063 257.103 212.719 257.179 213.369 257.248C213.568 257.269 213.767 257.29 213.967 257.312C214.476 257.367 214.977 257.415 215.49 257.476C216.165 257.553 216.853 257.623 217.522 257.713C218.043 257.771 218.564 257.829 219.085 257.894C219.902 257.99 220.731 258.093 221.561 258.202C221.876 258.241 222.191 258.279 222.506 258.324C224.873 258.62 227.265 258.948 229.696 259.289C233.381 259.81 237.124 260.376 240.892 260.987C244.667 261.598 248.464 262.243 252.281 262.922C253.246 263.096 254.211 263.27 255.182 263.45C255.619 263.533 256.056 263.617 256.494 263.7C257.24 263.835 257.986 263.977 258.732 264.118C259.478 264.26 260.224 264.401 260.97 264.549C261.857 264.723 262.751 264.896 263.638 265.07C269.484 266.228 275.298 267.462 280.97 268.755C281.902 268.967 282.835 269.186 283.761 269.398C285.613 269.829 287.448 270.266 289.266 270.71C289.767 270.826 290.263 270.948 290.758 271.07C291.992 271.379 293.227 271.687 294.443 272.002L294.655 272.06C295.549 272.279 296.423 272.504 297.298 272.735C299.362 273.276 301.392 273.822 303.388 274.375C304.713 274.742 306.023 275.113 307.317 275.488C309.253 276.047 311.15 276.613 312.996 277.185C313.453 277.327 313.909 277.468 314.359 277.603C315.71 278.021 317.041 278.446 318.334 278.87C319.363 279.205 320.366 279.546 321.356 279.886C322.347 280.227 323.318 280.568 324.269 280.909C324.88 281.127 325.485 281.359 326.089 281.578C326.958 281.899 327.813 282.221 328.649 282.542C328.906 282.639 329.157 282.742 329.408 282.838C329.569 282.909 329.723 282.967 329.877 283.031C330.179 283.153 330.488 283.269 330.784 283.391C331.086 283.507 331.382 283.629 331.678 283.758C331.967 283.873 332.263 283.996 332.546 284.118C332.835 284.233 333.118 284.356 333.401 284.484C333.639 284.581 333.871 284.684 334.096 284.787C334.552 284.986 335.009 285.185 335.453 285.391C335.671 285.494 335.89 285.59 336.109 285.693L336.61 285.925C336.681 285.963 336.752 285.995 336.823 286.028C336.983 286.105 337.151 286.188 337.311 286.266C337.684 286.439 338.051 286.626 338.411 286.799C338.893 287.044 339.363 287.288 339.813 287.526C340.27 287.77 340.713 288.015 341.138 288.253C341.209 288.291 341.273 288.33 341.344 288.368C341.44 288.42 341.537 288.478 341.633 288.529C341.961 288.716 342.276 288.909 342.591 289.095C343.209 289.474 343.794 289.847 344.34 290.22C344.463 290.304 344.578 290.388 344.701 290.465C345.106 290.754 345.492 291.037 345.852 291.326C345.852 291.333 345.852 291.333 345.858 291.333C345.98 291.423 346.096 291.519 346.212 291.609C346.308 291.699 346.411 291.777 346.508 291.867C346.842 292.156 347.151 292.432 347.434 292.715C347.529 292.803 347.619 292.895 347.704 292.992C347.741 293.023 347.776 293.057 347.807 293.095C347.935 293.224 348.051 293.352 348.16 293.481C348.177 293.498 348.192 293.518 348.205 293.539C348.36 293.719 348.501 293.899 348.636 294.079C348.701 294.169 348.771 294.259 348.829 294.349C348.906 294.458 348.984 294.574 349.048 294.683C349.106 294.773 349.157 294.87 349.209 294.96C349.345 295.192 349.461 295.435 349.556 295.686C349.628 295.857 349.686 296.034 349.73 296.214C349.778 296.385 349.815 296.559 349.839 296.735V296.735Z" fill="#5D59BB"/>
<path opacity="0.2" d="M349.839 296.735C349.832 297.86 349.819 299.436 349.768 301.384C349.761 301.654 349.749 301.931 349.742 302.214C349.678 304.947 349.581 308.323 349.446 312.136C349.44 312.368 349.433 312.593 349.421 312.824C349.24 317.48 348.958 322.901 348.469 331.486C347.562 347.344 345.98 333.666 344.392 339.229C339.98 336.515 335.144 333.672 329.973 330.753C329.041 330.226 328.1 329.696 327.15 329.165C316.809 323.396 305.259 317.351 293.201 311.364C292.725 311.127 292.243 310.889 291.767 310.657C264.146 297.005 233.998 283.725 209.573 274.864C204.859 273.153 200.358 271.61 196.126 270.253C187.213 267.404 179.508 265.411 173.579 264.549C167.405 263.649 163.142 263.97 161.418 265.829C161.354 264.517 161.287 263.261 161.219 262.061C161.193 261.662 161.167 261.27 161.142 260.884C161.181 260.778 161.233 260.677 161.283 260.575C161.29 260.56 161.295 260.545 161.302 260.53C161.315 260.497 161.33 260.464 161.347 260.434C161.366 260.394 161.388 260.355 161.412 260.318C161.433 260.272 161.459 260.229 161.489 260.189C161.547 260.099 161.611 260.003 161.682 259.913C161.734 259.845 161.79 259.781 161.849 259.72C161.869 259.689 161.893 259.661 161.92 259.636C161.945 259.61 161.971 259.578 162.003 259.546C162.017 259.526 162.035 259.508 162.055 259.495C162.106 259.436 162.162 259.382 162.222 259.334C162.451 259.123 162.697 258.929 162.955 258.755C163.045 258.697 163.142 258.639 163.232 258.575C163.88 258.187 164.562 257.86 165.27 257.598C165.515 257.508 165.759 257.424 166.023 257.334C166.119 257.308 166.209 257.276 166.306 257.244C166.447 257.199 166.589 257.154 166.737 257.122C167.47 256.903 168.261 256.717 169.116 256.543C169.373 256.492 169.643 256.44 169.913 256.395C170.132 256.357 170.357 256.318 170.582 256.279C172.492 255.977 174.659 255.752 177.052 255.604C177.277 255.591 177.502 255.578 177.727 255.566C177.991 255.553 178.254 255.54 178.524 255.527C178.75 255.514 178.981 255.508 179.213 255.501C179.438 255.488 179.669 255.482 179.907 255.476C180.557 255.456 181.225 255.437 181.907 255.424C183.849 255.392 185.894 255.405 188.042 255.45C189.039 255.469 190.055 255.501 191.097 255.546C191.161 255.546 191.232 255.553 191.296 255.553C192.203 255.578 193.123 255.623 194.055 255.668C194.711 255.701 195.374 255.733 196.036 255.771C196.66 255.81 197.29 255.848 197.927 255.893C198.422 255.919 198.917 255.958 199.419 255.99C199.843 256.022 200.267 256.054 200.692 256.08C201.2 256.119 201.708 256.157 202.222 256.196C202.93 256.254 203.637 256.311 204.358 256.369C205.071 256.434 205.798 256.498 206.525 256.562C207.251 256.627 207.985 256.697 208.718 256.768C208.795 256.774 208.866 256.781 208.936 256.787C209.605 256.858 210.274 256.922 210.949 256.993C214.692 257.373 218.544 257.816 222.506 258.324C224.872 258.627 227.269 258.95 229.695 259.295C233.38 259.816 237.123 260.382 240.892 260.987C244.667 261.597 248.463 262.243 252.281 262.922C253.246 263.096 254.21 263.269 255.181 263.45C256.365 263.668 257.548 263.891 258.731 264.118C259.477 264.26 260.223 264.401 260.969 264.549C261.857 264.723 262.751 264.896 263.638 265.07C269.484 266.228 275.297 267.462 280.969 268.755C281.902 268.967 282.834 269.186 283.76 269.398C285.613 269.829 287.448 270.266 289.265 270.71C289.767 270.832 290.262 270.954 290.757 271.076C291.999 271.385 293.227 271.694 294.442 272.002V272.009C294.513 272.022 294.584 272.041 294.655 272.06C295.542 272.285 296.423 272.51 297.298 272.742C299.362 273.282 301.392 273.826 303.388 274.375C304.713 274.748 306.024 275.115 307.317 275.488C309.253 276.054 311.15 276.62 312.996 277.185C313.452 277.327 313.909 277.468 314.359 277.603C315.709 278.028 317.034 278.45 318.333 278.87C319.362 279.205 320.365 279.545 321.356 279.886C322.346 280.227 323.317 280.568 324.269 280.909C324.886 281.127 325.491 281.353 326.089 281.571C326.964 281.893 327.812 282.214 328.649 282.542C328.906 282.639 329.157 282.742 329.407 282.838C329.877 283.018 330.333 283.205 330.784 283.391C331.086 283.507 331.382 283.629 331.678 283.758C331.967 283.873 332.263 283.996 332.546 284.118C332.835 284.233 333.118 284.356 333.401 284.484C333.639 284.581 333.87 284.684 334.096 284.786C334.552 284.986 335.009 285.185 335.452 285.391C335.671 285.494 335.89 285.59 336.108 285.693L336.61 285.925C336.681 285.963 336.752 285.995 336.822 286.028C337.369 286.285 337.896 286.542 338.411 286.799C338.893 287.044 339.363 287.288 339.813 287.526C340.346 287.809 340.854 288.085 341.343 288.368C341.44 288.42 341.536 288.478 341.633 288.529C341.961 288.716 342.276 288.909 342.591 289.095C343.208 289.474 343.793 289.847 344.34 290.22C344.88 290.593 345.382 290.96 345.851 291.326C345.851 291.333 345.851 291.333 345.858 291.333C346.083 291.513 346.301 291.693 346.507 291.867C346.842 292.156 347.15 292.432 347.433 292.715C347.528 292.803 347.618 292.895 347.703 292.992C347.741 293.023 347.775 293.057 347.806 293.095C347.941 293.243 348.076 293.391 348.205 293.539C348.359 293.719 348.501 293.899 348.636 294.079C348.7 294.169 348.771 294.259 348.829 294.349C348.906 294.458 348.983 294.574 349.048 294.683C349.105 294.773 349.157 294.87 349.208 294.96C349.345 295.192 349.461 295.435 349.556 295.686C349.626 295.858 349.684 296.034 349.729 296.214C349.778 296.385 349.814 296.559 349.839 296.735V296.735Z" fill="black"/>
</g>
<defs>
<clipPath id="clip0_189_113">
<rect width="506" height="368" fill="white"/>
</clipPath>
</defs>
</svg>
