<svg width="93" height="103" viewBox="0 0 93 103" fill="none" xmlns="http://www.w3.org/2000/svg">
<path d="M91.5084 1.16144C91.0866 0.701901 90.4938 0.439941 89.87 0.439941H3.13015C2.50633 0.439941 1.91359 0.701901 1.49179 1.16144C1.06999 1.62098 0.863531 2.23814 0.919031 2.85752L8.73343 90.3855C8.81557 91.3001 9.45271 92.0704 10.3363 92.3235L45.8785 102.476C46.0761 102.531 46.2825 102.56 46.4868 102.56C46.691 102.56 46.8975 102.531 47.095 102.476L82.6683 92.3235C83.5519 92.0704 84.189 91.3001 84.2712 90.3855L92.0811 2.85752C92.1366 2.23814 91.9279 1.62098 91.5084 1.16144ZM17.6401 60.3888L33.1801 64.7001V20.4199H42.0601V78.1399L17.6401 71.3667V60.3888ZM75.48 44.8399L73.1401 72.0349L50.9401 78.1399V67.9257L65.9251 63.8076L66.4801 55.4826L50.9401 58.1599V20.4199H77.5801L76.8142 29.2999H59.8201V47.0599L75.48 44.8399Z" fill="white"/>
</svg>
