<svg width="270" height="32" viewBox="0 0 270 32" fill="none" xmlns="http://www.w3.org/2000/svg">
<path d="M1.056 15.736C1.056 13.5173 1.536 11.544 2.496 9.816C3.456 8.06667 4.78933 6.712 6.496 5.752C8.224 4.77067 10.176 4.28 12.352 4.28C15.0187 4.28 17.3013 4.984 19.2 6.392C21.0987 7.8 22.368 9.72 23.008 12.152H16.992C16.544 11.2133 15.904 10.4987 15.072 10.008C14.2613 9.51733 13.3333 9.272 12.288 9.272C10.6027 9.272 9.23733 9.85867 8.192 11.032C7.14667 12.2053 6.624 13.7733 6.624 15.736C6.624 17.6987 7.14667 19.2667 8.192 20.44C9.23733 21.6133 10.6027 22.2 12.288 22.2C13.3333 22.2 14.2613 21.9547 15.072 21.464C15.904 20.9733 16.544 20.2587 16.992 19.32H23.008C22.368 21.752 21.0987 23.672 19.2 25.08C17.3013 26.4667 15.0187 27.16 12.352 27.16C10.176 27.16 8.224 26.68 6.496 25.72C4.78933 24.7387 3.456 23.384 2.496 21.656C1.536 19.928 1.056 17.9547 1.056 15.736ZM25.271 18.04C25.271 16.2053 25.6123 14.5947 26.295 13.208C26.999 11.8213 27.9483 10.7547 29.143 10.008C30.3377 9.26133 31.671 8.888 33.143 8.888C34.4017 8.888 35.5003 9.144 36.439 9.656C37.399 10.168 38.135 10.84 38.647 11.672V9.144H44.119V27H38.647V24.472C38.1137 25.304 37.367 25.976 36.407 26.488C35.4683 27 34.3697 27.256 33.111 27.256C31.6603 27.256 30.3377 26.8827 29.143 26.136C27.9483 25.368 26.999 24.2907 26.295 22.904C25.6123 21.496 25.271 19.8747 25.271 18.04ZM38.647 18.072C38.647 16.7067 38.263 15.6293 37.495 14.84C36.7483 14.0507 35.831 13.656 34.743 13.656C33.655 13.656 32.727 14.0507 31.959 14.84C31.2123 15.608 30.839 16.6747 30.839 18.04C30.839 19.4053 31.2123 20.4933 31.959 21.304C32.727 22.0933 33.655 22.488 34.743 22.488C35.831 22.488 36.7483 22.0933 37.495 21.304C38.263 20.5147 38.647 19.4373 38.647 18.072ZM53.5498 12.12C54.1898 11.1387 54.9898 10.3707 55.9498 9.816C56.9098 9.24 57.9764 8.952 59.1498 8.952V14.744H57.6458C56.2804 14.744 55.2564 15.0427 54.5738 15.64C53.8911 16.216 53.5498 17.24 53.5498 18.712V27H48.0778V9.144H53.5498V12.12ZM67.2373 3.32V27H61.7653V3.32H67.2373ZM79.3308 27.256C77.5814 27.256 76.0028 26.8827 74.5948 26.136C73.2081 25.3893 72.1094 24.3227 71.2988 22.936C70.5094 21.5493 70.1148 19.928 70.1148 18.072C70.1148 16.2373 70.5201 14.6267 71.3307 13.24C72.1414 11.832 73.2508 10.7547 74.6588 10.008C76.0668 9.26133 77.6454 8.888 79.3948 8.888C81.1441 8.888 82.7228 9.26133 84.1308 10.008C85.5388 10.7547 86.6481 11.832 87.4588 13.24C88.2694 14.6267 88.6748 16.2373 88.6748 18.072C88.6748 19.9067 88.2588 21.528 87.4268 22.936C86.6161 24.3227 85.4961 25.3893 84.0668 26.136C82.6588 26.8827 81.0801 27.256 79.3308 27.256ZM79.3308 22.52C80.3761 22.52 81.2614 22.136 81.9868 21.368C82.7334 20.6 83.1068 19.5013 83.1068 18.072C83.1068 16.6427 82.7441 15.544 82.0188 14.776C81.3148 14.008 80.4401 13.624 79.3948 13.624C78.3281 13.624 77.4428 14.008 76.7388 14.776C76.0348 15.5227 75.6828 16.6213 75.6828 18.072C75.6828 19.5013 76.0241 20.6 76.7068 21.368C77.4108 22.136 78.2854 22.52 79.3308 22.52ZM98.8418 27.256C97.2844 27.256 95.8978 26.9893 94.6818 26.456C93.4658 25.9227 92.5058 25.1973 91.8018 24.28C91.0978 23.3413 90.7031 22.296 90.6178 21.144H96.0258C96.0898 21.7627 96.3778 22.264 96.8898 22.648C97.4018 23.032 98.0311 23.224 98.7778 23.224C99.4604 23.224 99.9831 23.096 100.346 22.84C100.73 22.5627 100.922 22.2107 100.922 21.784C100.922 21.272 100.655 20.8987 100.122 20.664C99.5884 20.408 98.7244 20.1307 97.5298 19.832C96.2498 19.5333 95.1831 19.224 94.3298 18.904C93.4764 18.5627 92.7404 18.04 92.1218 17.336C91.5031 16.6107 91.1938 15.64 91.1938 14.424C91.1938 13.4 91.4711 12.472 92.0258 11.64C92.6018 10.7867 93.4338 10.1147 94.5218 9.624C95.6311 9.13333 96.9431 8.888 98.4578 8.888C100.698 8.888 102.458 9.44267 103.738 10.552C105.039 11.6613 105.786 13.1333 105.978 14.968H100.922C100.836 14.3493 100.559 13.8587 100.09 13.496C99.6418 13.1333 99.0444 12.952 98.2978 12.952C97.6578 12.952 97.1671 13.08 96.8258 13.336C96.4844 13.5707 96.3138 13.9013 96.3138 14.328C96.3138 14.84 96.5804 15.224 97.1138 15.48C97.6684 15.736 98.5218 15.992 99.6738 16.248C100.996 16.5893 102.074 16.9307 102.906 17.272C103.738 17.592 104.463 18.1253 105.082 18.872C105.722 19.5973 106.052 20.5787 106.074 21.816C106.074 22.8613 105.775 23.8 105.178 24.632C104.602 25.4427 103.759 26.0827 102.65 26.552C101.562 27.0213 100.292 27.256 98.8418 27.256ZM127.659 27L122.987 18.52H121.675V27H116.203V4.536H125.387C127.157 4.536 128.661 4.84533 129.899 5.464C131.157 6.08267 132.096 6.936 132.715 8.024C133.333 9.09067 133.643 10.2853 133.643 11.608C133.643 13.1013 133.216 14.4347 132.363 15.608C131.531 16.7813 130.293 17.6133 128.651 18.104L133.835 27H127.659ZM121.675 14.648H125.067C126.069 14.648 126.816 14.4027 127.307 13.912C127.819 13.4213 128.075 12.728 128.075 11.832C128.075 10.9787 127.819 10.3067 127.307 9.816C126.816 9.32533 126.069 9.08 125.067 9.08H121.675V14.648ZM139.83 7.288C138.87 7.288 138.08 7.01067 137.462 6.456C136.864 5.88 136.566 5.176 136.566 4.344C136.566 3.49067 136.864 2.78667 137.462 2.232C138.08 1.656 138.87 1.368 139.83 1.368C140.768 1.368 141.536 1.656 142.134 2.232C142.752 2.78667 143.062 3.49067 143.062 4.344C143.062 5.176 142.752 5.88 142.134 6.456C141.536 7.01067 140.768 7.288 139.83 7.288ZM142.55 9.144V27H137.078V9.144H142.55ZM151.987 11.672C152.499 10.84 153.235 10.168 154.195 9.656C155.155 9.144 156.254 8.888 157.491 8.888C158.963 8.888 160.297 9.26133 161.491 10.008C162.686 10.7547 163.625 11.8213 164.307 13.208C165.011 14.5947 165.363 16.2053 165.363 18.04C165.363 19.8747 165.011 21.496 164.307 22.904C163.625 24.2907 162.686 25.368 161.491 26.136C160.297 26.8827 158.963 27.256 157.491 27.256C156.233 27.256 155.134 27.0107 154.195 26.52C153.257 26.008 152.521 25.336 151.987 24.504V27H146.515V3.32H151.987V11.672ZM159.795 18.04C159.795 16.6747 159.411 15.608 158.643 14.84C157.897 14.0507 156.969 13.656 155.859 13.656C154.771 13.656 153.843 14.0507 153.075 14.84C152.329 15.6293 151.955 16.7067 151.955 18.072C151.955 19.4373 152.329 20.5147 153.075 21.304C153.843 22.0933 154.771 22.488 155.859 22.488C156.947 22.488 157.875 22.0933 158.643 21.304C159.411 20.4933 159.795 19.4053 159.795 18.04ZM185.066 17.784C185.066 18.296 185.034 18.8293 184.97 19.384H172.586C172.671 20.4933 173.023 21.3467 173.642 21.944C174.282 22.52 175.061 22.808 175.978 22.808C177.343 22.808 178.293 22.232 178.826 21.08H184.65C184.351 22.2533 183.807 23.3093 183.018 24.248C182.25 25.1867 181.279 25.9227 180.106 26.456C178.933 26.9893 177.621 27.256 176.17 27.256C174.421 27.256 172.863 26.8827 171.498 26.136C170.133 25.3893 169.066 24.3227 168.298 22.936C167.53 21.5493 167.146 19.928 167.146 18.072C167.146 16.216 167.519 14.5947 168.266 13.208C169.034 11.8213 170.101 10.7547 171.466 10.008C172.831 9.26133 174.399 8.888 176.17 8.888C177.898 8.888 179.434 9.25067 180.778 9.976C182.122 10.7013 183.167 11.736 183.914 13.08C184.682 14.424 185.066 15.992 185.066 17.784ZM179.466 16.344C179.466 15.4053 179.146 14.6587 178.506 14.104C177.866 13.5493 177.066 13.272 176.106 13.272C175.189 13.272 174.41 13.5387 173.77 14.072C173.151 14.6053 172.767 15.3627 172.618 16.344H179.466ZM190.705 7.288C189.745 7.288 188.955 7.01067 188.337 6.456C187.739 5.88 187.441 5.176 187.441 4.344C187.441 3.49067 187.739 2.78667 188.337 2.232C188.955 1.656 189.745 1.368 190.705 1.368C191.643 1.368 192.411 1.656 193.009 2.232C193.627 2.78667 193.937 3.49067 193.937 4.344C193.937 5.176 193.627 5.88 193.009 6.456C192.411 7.01067 191.643 7.288 190.705 7.288ZM193.425 9.144V27H187.953V9.144H193.425ZM202.862 12.12C203.502 11.1387 204.302 10.3707 205.262 9.816C206.222 9.24 207.289 8.952 208.462 8.952V14.744H206.958C205.593 14.744 204.569 15.0427 203.886 15.64C203.204 16.216 202.862 17.24 202.862 18.712V27H197.39V9.144H202.862V12.12ZM219.206 27.256C217.456 27.256 215.878 26.8827 214.47 26.136C213.083 25.3893 211.984 24.3227 211.174 22.936C210.384 21.5493 209.99 19.928 209.99 18.072C209.99 16.2373 210.395 14.6267 211.206 13.24C212.016 11.832 213.126 10.7547 214.534 10.008C215.942 9.26133 217.52 8.888 219.27 8.888C221.019 8.888 222.598 9.26133 224.006 10.008C225.414 10.7547 226.523 11.832 227.334 13.24C228.144 14.6267 228.55 16.2373 228.55 18.072C228.55 19.9067 228.134 21.528 227.302 22.936C226.491 24.3227 225.371 25.3893 223.942 26.136C222.534 26.8827 220.955 27.256 219.206 27.256ZM219.206 22.52C220.251 22.52 221.136 22.136 221.862 21.368C222.608 20.6 222.982 19.5013 222.982 18.072C222.982 16.6427 222.619 15.544 221.894 14.776C221.19 14.008 220.315 13.624 219.27 13.624C218.203 13.624 217.318 14.008 216.614 14.776C215.91 15.5227 215.558 16.6213 215.558 18.072C215.558 19.5013 215.899 20.6 216.582 21.368C217.286 22.136 218.16 22.52 219.206 22.52Z" fill="url(#paint0_linear_24_3)"/>
<path d="M237.332 15.125L245.43 18.4062V20.7031L235.844 16.2617V14.9141L237.332 15.125ZM245.43 12.4297L237.344 15.7578L235.844 15.9219V14.5625L245.43 10.1328V12.4297ZM256.41 5.9375L249.297 24.4648H247.434L254.559 5.9375H256.41ZM267.039 15.5938L258.707 12.3477V10.1094L268.715 14.5391V15.9102L267.039 15.5938ZM258.707 18.4531L267.062 15.1367L268.715 14.8906V16.25L258.707 20.6914V18.4531Z" fill="url(#paint1_linear_24_3)"/>
<defs>
<linearGradient id="paint0_linear_24_3" x1="5.5" y1="0" x2="204.5" y2="0" gradientUnits="userSpaceOnUse">
<stop stop-color="#00FFD6"/>
<stop offset="1" stop-color="#1CB39A"/>
</linearGradient>
<linearGradient id="paint1_linear_24_3" x1="235.837" y1="3" x2="266.12" y2="3" gradientUnits="userSpaceOnUse">
<stop stop-color="#00FFD6"/>
<stop offset="1" stop-color="#1CB39A"/>
</linearGradient>
</defs>
</svg>
