<svg width="105" height="105" viewBox="0 0 105 105" fill="none" xmlns="http://www.w3.org/2000/svg">
<path d="M46.6316 38.2392C46.9787 39.1699 47.1522 40.3215 47.1522 41.6782C47.1522 43.303 46.9629 44.6439 46.6001 45.6851C46.2372 46.6947 45.7482 47.4993 45.1487 48.0672C44.5335 48.6351 43.8394 49.0452 43.0506 49.2661C42.2461 49.5185 41.3785 49.6447 40.4793 49.6447C40.2426 49.6447 39.7694 49.6131 39.0753 49.55C38.6178 49.5027 38.3023 49.4554 38.0814 49.4238V34.7844C38.8386 34.6267 39.7852 34.5636 40.8736 34.5636C41.7097 34.5636 42.5301 34.674 43.303 34.9264C44.0445 35.163 44.707 35.5416 45.2749 36.0622C45.8429 36.5986 46.3003 37.3242 46.6316 38.2392ZM105 19.6875V85.3125C105 96.1816 96.1816 105 85.3125 105H19.6875C8.81836 105 0 96.1816 0 85.3125V19.6875C0 8.81836 8.81836 0 19.6875 0H85.3125C96.1816 0 105 8.81836 105 19.6875ZM55.45 49.1714C56.2703 47.1364 56.6804 44.6439 56.6804 41.7413C56.6804 38.5389 56.1914 35.8887 55.2133 33.8694C54.2353 31.8502 52.9417 30.2411 51.3642 29.1211C49.8024 28.0011 48.0041 27.2438 46.0322 26.8652C42.2776 26.1554 38.3812 26.1869 34.4847 26.6128C32.639 26.8021 30.9037 27.0703 29.3262 27.4174C29.0895 27.4805 28.9318 27.6855 28.9318 27.9064V72.6923C28.9318 72.9763 29.1526 73.1971 29.4366 73.1971H37.5766C37.8448 73.1971 38.0814 72.9763 38.0814 72.6923V57.7058C38.1761 57.7216 38.2865 57.7374 38.3969 57.7532C38.8071 57.8005 39.233 57.832 39.6747 57.8478C40.1164 57.8636 40.5424 57.8794 40.9367 57.8794H41.7728C43.6659 57.8794 45.5431 57.5954 47.3257 57.0117C49.1399 56.4438 50.749 55.4815 52.1372 54.188C53.5254 52.8944 54.6297 51.2064 55.45 49.1714ZM77.6773 63.6531C77.6773 61.8074 77.3776 60.2299 76.7623 58.9679C76.1471 57.7058 75.3583 56.6331 74.4276 55.7497C73.4811 54.8821 72.4872 54.1564 71.4461 53.5727C70.4364 53.0206 69.4742 52.4842 68.575 51.9636C67.7073 51.4746 66.9817 50.954 66.4453 50.4492C65.9721 50.0075 65.7354 49.4712 65.7354 48.7928C65.7354 47.799 66.0352 46.6474 68.3857 46.6474C69.4584 46.6474 70.5627 46.8051 71.6827 47.1049C72.8027 47.4204 73.7808 47.7517 74.5853 48.0829C74.7273 48.146 74.8693 48.146 74.9955 48.0829C75.1375 48.0198 75.2321 47.9094 75.2637 47.7674L77.0778 41.8202C77.1409 41.5993 77.062 41.3627 76.857 41.2523C75.8316 40.6212 74.4276 40.0849 72.7081 39.6747C71.0044 39.2488 69.1587 39.0437 67.2341 39.0437C63.9213 39.0437 61.3657 39.9114 59.6304 41.6466C57.9109 43.3661 57.0275 45.8429 57.0275 48.9821C57.0275 50.812 57.343 52.3738 57.9582 53.6043C58.5577 54.819 59.3465 55.8601 60.293 56.7278C61.2395 57.5639 62.2333 58.2895 63.2587 58.8574C64.2683 59.4096 65.2306 59.9617 66.1298 60.4981C66.9975 61.0029 67.7073 61.5708 68.2437 62.1387C68.7485 62.675 68.9851 63.3218 68.9851 64.0948C68.9851 64.9151 68.7327 65.4988 68.2279 65.8459C67.6758 66.2402 66.9343 66.4295 66.0667 66.4295C64.8205 66.4295 63.6215 66.2402 62.5015 65.8774C61.3657 65.4988 60.3403 65.0571 59.4569 64.5681C59.3307 64.4892 59.1729 64.4734 59.031 64.5207C58.889 64.5838 58.7785 64.6943 58.7312 64.8362L56.6016 71.0359C56.5227 71.2568 56.6173 71.4934 56.8066 71.6196C57.8794 72.3453 59.3149 72.9289 61.066 73.3706C62.8012 73.8124 64.5996 74.0332 66.3822 74.0332C70.0894 74.0332 72.9289 73.0709 74.822 71.1779C76.715 69.2691 77.6773 66.745 77.6773 63.6531Z" fill="white"/>
</svg>
